<svg xmlns="http://www.w3.org/2000/svg" version="1.1" xmlns:xlink="http://www.w3.org/1999/xlink" xmlns:svgjs="http://svgjs.dev/svgjs" width="2560" height="300" preserveAspectRatio="none" viewBox="0 0 2560 300"><g mask="url(&quot;#SvgjsMask1183&quot;)" fill="none"><path d="M2645.3333333333335 300L0 300 L0 159.22Q78.11 24, 213.33333333333331 102.11Q302.46 -22.1, 426.66666666666663 67.03Q560.32 -12.65, 640 121Q722.53 75.53, 768 158.07Q791.93 54.01, 896 77.94Q1024.77 -6.62, 1109.3333333333333 122.15Q1209.94 9.43, 1322.6666666666665 110.04Q1443.15 17.19, 1535.9999999999998 137.67Q1576.54 50.21, 1663.9999999999998 90.75Q1810.19 23.6, 1877.333333333333 169.79Q1957.8 36.92, 2090.6666666666665 117.39Q2173.14 -13.47, 2304 69Q2422.51 -25.83, 2517.3333333333335 92.68Q2616.98 64.33, 2645.3333333333335 163.97z" fill="rgba(166, 227, 233, 1)"></path><path d="M2602.6666666666665 300L0 300 L0 145.41Q126.87 58.95, 213.33333333333331 185.82Q307.06 151.55, 341.3333333333333 245.27Q357.8 133.74, 469.3333333333333 150.2Q546.81 99.68, 597.3333333333333 177.15Q739.72 106.21, 810.6666666666665 248.6Q844.13 154.06, 938.6666666666665 187.52Q1031.67 67.19, 1151.9999999999998 160.2Q1285.73 80.59, 1365.333333333333 214.32Q1416.67 137.66, 1493.333333333333 189Q1580.25 62.58, 1706.6666666666663 149.5Q1825.12 54.62, 1919.9999999999995 173.08Q2022.59 147.67, 2047.9999999999995 250.26Q2065.07 139.33, 2175.9999999999995 156.4Q2308.03 75.09, 2389.333333333333 207.12Q2463.4 67.85, 2602.6666666666665 141.92z" fill="rgba(203, 241, 245, 1)"></path><path d="M2602.6666666666665 300L0 300 L0 324.86Q45.66 242.52, 128 288.18Q216.77 163.62, 341.3333333333333 252.39Q473.45 171.17, 554.6666666666666 303.29Q601.63 222.25, 682.6666666666666 269.21Q817.34 190.55, 896 325.23Q946.78 248.01, 1024 298.79Q1108.86 170.32, 1237.3333333333333 255.18Q1328.13 132.64, 1450.6666666666665 223.44Q1589.95 149.39, 1663.9999999999998 288.67Q1736.46 233.13, 1791.9999999999998 305.59Q1830.39 215.99, 1919.9999999999998 254.38Q1968.19 174.57, 2047.9999999999998 222.76Q2208.99 170.41, 2261.333333333333 331.4Q2361.98 218.71, 2474.6666666666665 319.36Q2510.13 226.83, 2602.6666666666665 262.29z" fill="rgba(166, 227, 233, 1)"></path></g><defs><mask id="SvgjsMask1183"><rect width="2560" height="300" fill="#ffffff"></rect></mask></defs></svg>